<svg xmlns="http://www.w3.org/2000/svg" fill="none" viewBox="0 0 16 16">
  <path fill="#0b0b10" d="m7.998 1.055.356.01a6.943 6.943 0 0 1-.356 13.875l-.357-.01a6.94 6.94 0 0 1-6.585-6.92l-.001-.012v-.013a6.943 6.943 0 0 1 6.943-6.93M5.842 8.498c.05 1.526.326 2.878.733 3.863.227.547.483.958.742 1.223.258.264.488.356.681.356.192 0 .422-.093.68-.356.26-.265.517-.676.743-1.223.407-.985.682-2.337.732-3.863zm5.311 0c-.05 1.633-.343 3.12-.808 4.246-.133.32-.283.618-.449.884a5.94 5.94 0 0 0 4.022-5.13zm-9.076 0a5.94 5.94 0 0 0 4.02 5.129 6 6 0 0 1-.447-.883c-.465-1.126-.758-2.613-.808-4.246zm7.82-6.132c.165.266.315.564.448.884.466 1.126.758 2.615.808 4.248h2.765a5.95 5.95 0 0 0-4.022-5.132m-3.8.001a5.95 5.95 0 0 0-4.02 5.131h2.765c.05-1.633.342-3.122.808-4.248.133-.32.281-.617.447-.883m1.901-.312c-.192 0-.423.092-.68.355-.26.265-.517.676-.743 1.223-.408.985-.683 2.339-.733 3.865h4.311c-.05-1.526-.324-2.88-.732-3.865-.226-.547-.484-.958-.743-1.223-.258-.263-.488-.355-.68-.355"/>
</svg>