<svg xmlns="http://www.w3.org/2000/svg" viewBox="0 0 16 16" fill="none" class="icon-sidebar-show">

    <g class="icon-sidebar-show_anim_arrow">
        <path d="M9.14648,5.64648C9.34175,5.45122,9.65825,5.45122,9.85352,5.64648C10.0488,5.84175,10.0488,6.15825,9.85352,6.35352L8.70703,7.5L12.5,7.5C12.7761,7.5,13,7.72386,13,8C13,8.27614,12.7761,8.5,12.5,8.5L8.70703,8.5L9.85352,9.64648C10.0488,9.84175,10.0488,10.1583,9.85352,10.3535C9.65825,10.5488,9.34175,10.5488,9.14648,10.3535L7.14648,8.35352C7.05272,8.25975,7.00001,8.1326,7,8C7,7.8674,7.05272,7.74025,7.14648,7.64648L9.14648,5.64648Z" fill="currentColor" opacity="1" />
    </g>
    <g class="icon-sidebar-show_anim_line">
        <rect  width="1" height="10" fill="currentColor" rx="0" stroke="none" transform="translate(1.5,8) translate(-0.5,-5)" />
    </g>
    <rect class="icon-sidebar-show_anim_rect" width="13" height="11" fill="none" rx="2" stroke="currentColor" fill-rule="nonzero" transform="translate(8.5,7.5) translate(-7,-5)"/>
</svg>
