<svg xmlns="http://www.w3.org/2000/svg" viewBox="0 0 16 16" fill="none">
    <style>
#anim_line,
#anim_arrow { 
    transition: all 0.4s ease;
}
#anim_line { transition-behavior: allow-discrete; }
#anim_arrow { display: none; transition-behavior: allow-discrete;}
#anim {overflow: hidden;}
svg:hover #anim_line { transform: translate(-3.8px,0);}
svg:hover #anim_line rect {rx: 0.5px; }
svg:hover #anim_arrow { transform: translate(-11px, 0); display: block;}
    </style>
    <g id="anim">

        <g id="anim_line">
            <rect width="1" height="10" fill="#0b0b10" stroke="none" opacity="1" transform="translate(5.5,8) translate(-0.5,-5)" />
        </g>
        <g id="anim_rect">
            <rect width="13" height="11" fill="none" rx="2" stroke="#000000" fill-rule="nonzero" transform="translate(8.5,7.5) translate(-7,-5)"/>
        </g>
        <g id="anim_arrow">
            <path d="M9.14648,5.64648C9.34175,5.45122,9.65825,5.45122,9.85352,5.64648C10.0488,5.84175,10.0488,6.15825,9.85352,6.35352L8.70703,7.5L12.5,7.5C12.7761,7.5,13,7.72386,13,8C13,8.27614,12.7761,8.5,12.5,8.5L8.70703,8.5L9.85352,9.64648C10.0488,9.84175,10.0488,10.1583,9.85352,10.3535C9.65825,10.5488,9.34175,10.5488,9.14648,10.3535L7.14648,8.35352C7.05272,8.25975,7.00001,8.1326,7,8C7,7.8674,7.05272,7.74025,7.14648,7.64648L9.14648,5.64648Z" fill="#0b0b10" transform="translate(9, 0)" />
        </g>
    </g>
</svg>