<svg xmlns="http://www.w3.org/2000/svg" fill="none" viewBox="0 0 16 16">
  <g clip-path="url(#a)">
    <path fill="#88c9f9" d="M8 16A8 8 0 1 0 8 0a8 8 0 0 0 0 16"/>
    <path fill="#5c913b" d="M11.429.78c-.454.253-.832.68-1.346.525-.833-.25-1.944-.805-2.666-.11-.723.693-.89 1.333 0 1.305.888-.028 1.5-1.084 1.944-.64s.333.807-.722.945c-1.055.139-2.195.306-2.806.306s-.75.36-.333.75-.25.417-.945.806c-.694.389.167.555.75.889.584.333 1.028-.084 1.278-.64.25-.555 1.325-1.222 1.774-1.138.448.083.448.306.365.694s.333.278.36-.167c.028-.444.529-.777.917-.805.389-.028.722.528.278.805-.444.278-.889.5-.333.64.555.139.944.86.305 1.166-.638.305-1.75.5-2.25.25s-1.638-.611-1.944-.417c-.305.194-.472.396-.833.531-.361.136-1.833.802-1.861 1.664S3.305 9.972 3.889 10c.583.027 2-.36 2.444-.722s1.056-.278 1.25.138.055.667-.139 1.334c-.194.666.127 1 .439 1.583.311.583.561.916.561 1.333s.445.833 1.111.139c.667-.695 1.278-2.056 1.556-2.556.277-.5.5-1.61.833-1.833s.861-.75.472-.667c-.39.084-1.167-.027-1.36-.583-.195-.555-1.028-1.61-.64-1.722.389-.111.833.618 1 .962s.389.76.722.871c.334.111 1.056-.743 1.278-.871.222-.129.056-.656-.389-.6-.444.055-1.027 0-1.027-.278 0-.277.555-.64 1-.556s.777.223 1.055.556.834.944 1.056 1.333c.222.39.389.445.5-.25.073-.46.172-.715.262-.987A8 8 0 0 0 11.429.78"/>
  </g>
  <defs>
    <clipPath id="a">
      <path fill="#fff" d="M0 0h16v16H0z"/>
    </clipPath>
  </defs>
</svg>